<?xml version="1.0" standalone="no"?>
<!DOCTYPE svg PUBLIC "-//W3C//DTD SVG 20010904//EN"
 "http://www.w3.org/TR/2001/REC-SVG-20010904/DTD/svg10.dtd">
<svg version="1.0" xmlns="http://www.w3.org/2000/svg"
 width="512.000000pt" height="512.000000pt" viewBox="0 0 512.000000 512.000000"
 preserveAspectRatio="xMidYMid meet">
<metadata>
Created by potrace 1.11, written by Peter Selinger 2001-2013
</metadata>
<g transform="translate(0.000000,512.000000) scale(0.100000,-0.100000)"
fill="#000000" stroke="none">
<path d="M3420 3578 c-108 -38 -167 -87 -391 -323 -118 -124 -219 -225 -226
-225 -6 0 -175 65 -375 144 -507 201 -644 250 -695 248 -88 -3 -302 -109 -311
-153 -2 -12 93 -66 365 -207 202 -105 444 -231 536 -280 l169 -89 -338 -353
c-273 -285 -341 -351 -358 -347 -12 3 -69 23 -128 46 -59 23 -117 41 -130 41
-29 0 -108 -36 -108 -49 0 -5 62 -42 138 -81 75 -40 139 -74 141 -76 2 -2 -3
-12 -11 -21 -45 -51 -73 -157 -50 -188 4 -5 30 -31 59 -57 42 -39 59 -48 88
-48 38 0 81 18 131 55 l30 23 80 -146 c44 -80 85 -147 91 -149 12 -4 53 74 53
102 0 10 -25 81 -57 157 -55 137 -56 140 -37 158 156 151 699 648 704 645 4
-3 61 -103 125 -222 299 -554 478 -873 490 -873 49 0 155 215 157 318 0 26
-65 197 -217 567 -137 333 -214 534 -209 541 5 7 104 100 220 208 115 108 225
216 243 241 48 67 83 153 88 220 5 57 3 63 -28 104 -70 91 -128 108 -239 69z"/>
</g>
</svg>
